<mxfile host="app.diagrams.net" modified="2024-06-07T09:25:06.361Z" agent="Mozilla/5.0 (Windows NT 10.0; Win64; x64) AppleWebKit/537.36 (KHTML, like Gecko) Chrome/125.0.0.0 Safari/537.36" version="24.5.1" etag="U5G-3PfjkQnp7dxf0eno" type="github">
  <diagram name="Page-1" id="pbdkpKOdxYVezZzjZ1qA">
    <mxGraphModel>
      <root>
        <mxCell id="0" />
        <mxCell id="1" parent="0" />
      </root>
    </mxGraphModel>
  </diagram>
</mxfile>
